<svg width="161" height="40" viewBox="0 0 161 40" fill="none" xmlns="http://www.w3.org/2000/svg">
<rect x="0.194336" width="160" height="40" rx="8" fill="#09A66D"/>
<path d="M24.5259 26V13.4H28.5939C29.5779 13.4 30.3819 13.562 31.0059 13.886C31.6299 14.21 32.0919 14.654 32.3919 15.218C32.6919 15.782 32.8419 16.406 32.8419 17.09C32.8419 17.882 32.6259 18.596 32.1939 19.232C31.7739 19.868 31.1139 20.318 30.2139 20.582L32.9679 26H31.1859L28.6299 20.798H28.5219H26.0379V26H24.5259ZM26.0379 19.61H28.4859C29.4579 19.61 30.1659 19.376 30.6099 18.908C31.0539 18.44 31.2759 17.84 31.2759 17.108C31.2759 16.364 31.0539 15.776 30.6099 15.344C30.1779 14.9 29.4639 14.678 28.4679 14.678H26.0379V19.61ZM38.5749 26.216C37.7229 26.216 36.9669 26.024 36.3069 25.64C35.6469 25.244 35.1249 24.698 34.7409 24.002C34.3689 23.306 34.1829 22.484 34.1829 21.536C34.1829 20.6 34.3689 19.784 34.7409 19.088C35.1129 18.38 35.6289 17.834 36.2889 17.45C36.9609 17.054 37.7349 16.856 38.6109 16.856C39.4749 16.856 40.2189 17.054 40.8429 17.45C41.4789 17.834 41.9649 18.344 42.3009 18.98C42.6369 19.616 42.8049 20.3 42.8049 21.032C42.8049 21.164 42.7989 21.296 42.7869 21.428C42.7869 21.56 42.7869 21.71 42.7869 21.878H35.6769C35.7129 22.562 35.8689 23.132 36.1449 23.588C36.4329 24.032 36.7869 24.368 37.2069 24.596C37.6389 24.824 38.0949 24.938 38.5749 24.938C39.1989 24.938 39.7209 24.794 40.1409 24.506C40.5609 24.218 40.8669 23.828 41.0589 23.336H42.5529C42.3129 24.164 41.8509 24.854 41.1669 25.406C40.4949 25.946 39.6309 26.216 38.5749 26.216ZM38.5749 18.134C37.8549 18.134 37.2129 18.356 36.6489 18.8C36.0969 19.232 35.7789 19.868 35.6949 20.708H41.3109C41.2749 19.904 40.9989 19.274 40.4829 18.818C39.9669 18.362 39.3309 18.134 38.5749 18.134ZM48.2842 23.192C47.7802 23.192 47.3182 23.126 46.8982 22.994L45.9982 23.84C46.1302 23.936 46.2922 24.02 46.4842 24.092C46.6882 24.152 46.9762 24.212 47.3482 24.272C47.7202 24.32 48.2422 24.374 48.9142 24.434C50.1142 24.518 50.9722 24.794 51.4882 25.262C52.0042 25.73 52.2622 26.342 52.2622 27.098C52.2622 27.614 52.1182 28.106 51.8302 28.574C51.5542 29.042 51.1222 29.426 50.5342 29.726C49.9582 30.026 49.2142 30.176 48.3022 30.176C47.4982 30.176 46.7842 30.068 46.1602 29.852C45.5362 29.648 45.0502 29.33 44.7022 28.898C44.3542 28.478 44.1802 27.944 44.1802 27.296C44.1802 26.96 44.2702 26.594 44.4502 26.198C44.6302 25.814 44.9662 25.448 45.4582 25.1C45.1942 24.992 44.9662 24.878 44.7742 24.758C44.5942 24.626 44.4262 24.482 44.2702 24.326V23.912L45.8002 22.4C45.0922 21.8 44.7382 21.008 44.7382 20.024C44.7382 19.436 44.8762 18.902 45.1522 18.422C45.4282 17.942 45.8302 17.564 46.3582 17.288C46.8862 17 47.5282 16.856 48.2842 16.856C48.8002 16.856 49.2682 16.928 49.6882 17.072H52.9822V18.206L51.3082 18.278C51.6562 18.782 51.8302 19.364 51.8302 20.024C51.8302 20.612 51.6862 21.146 51.3982 21.626C51.1222 22.106 50.7202 22.49 50.1922 22.778C49.6762 23.054 49.0402 23.192 48.2842 23.192ZM48.2842 21.95C48.9202 21.95 49.4242 21.788 49.7962 21.464C50.1802 21.128 50.3722 20.648 50.3722 20.024C50.3722 19.412 50.1802 18.944 49.7962 18.62C49.4242 18.284 48.9202 18.116 48.2842 18.116C47.6362 18.116 47.1202 18.284 46.7362 18.62C46.3642 18.944 46.1782 19.412 46.1782 20.024C46.1782 20.648 46.3642 21.128 46.7362 21.464C47.1202 21.788 47.6362 21.95 48.2842 21.95ZM45.6562 27.152C45.6562 27.752 45.9082 28.196 46.4122 28.484C46.9162 28.784 47.5462 28.934 48.3022 28.934C49.0462 28.934 49.6402 28.772 50.0842 28.448C50.5402 28.124 50.7682 27.692 50.7682 27.152C50.7682 26.768 50.6122 26.432 50.3002 26.144C49.9882 25.868 49.4122 25.706 48.5722 25.658C47.9122 25.61 47.3422 25.55 46.8622 25.478C46.3702 25.742 46.0462 26.024 45.8902 26.324C45.7342 26.636 45.6562 26.912 45.6562 27.152ZM58.3503 26.216C57.4983 26.216 56.7423 26.024 56.0823 25.64C55.4223 25.244 54.9003 24.698 54.5163 24.002C54.1443 23.306 53.9583 22.484 53.9583 21.536C53.9583 20.6 54.1443 19.784 54.5163 19.088C54.8883 18.38 55.4043 17.834 56.0643 17.45C56.7363 17.054 57.5103 16.856 58.3863 16.856C59.2503 16.856 59.9943 17.054 60.6183 17.45C61.2543 17.834 61.7403 18.344 62.0763 18.98C62.4123 19.616 62.5803 20.3 62.5803 21.032C62.5803 21.164 62.5743 21.296 62.5623 21.428C62.5623 21.56 62.5623 21.71 62.5623 21.878H55.4523C55.4883 22.562 55.6443 23.132 55.9203 23.588C56.2083 24.032 56.5623 24.368 56.9823 24.596C57.4143 24.824 57.8703 24.938 58.3503 24.938C58.9743 24.938 59.4963 24.794 59.9163 24.506C60.3363 24.218 60.6423 23.828 60.8343 23.336H62.3283C62.0883 24.164 61.6263 24.854 60.9423 25.406C60.2703 25.946 59.4063 26.216 58.3503 26.216ZM58.3503 18.134C57.6303 18.134 56.9883 18.356 56.4243 18.8C55.8723 19.232 55.5543 19.868 55.4703 20.708H61.0863C61.0503 19.904 60.7743 19.274 60.2583 18.818C59.7423 18.362 59.1063 18.134 58.3503 18.134ZM68.0043 26.216C66.9363 26.216 66.0483 25.946 65.3403 25.406C64.6323 24.866 64.2183 24.134 64.0983 23.21H65.6463C65.7423 23.678 65.9883 24.086 66.3843 24.434C66.7923 24.77 67.3383 24.938 68.0223 24.938C68.6583 24.938 69.1263 24.806 69.4263 24.542C69.7263 24.266 69.8763 23.942 69.8763 23.57C69.8763 23.03 69.6783 22.67 69.2823 22.49C68.8983 22.31 68.3523 22.148 67.6443 22.004C67.1643 21.908 66.6843 21.77 66.2043 21.59C65.7243 21.41 65.3223 21.158 64.9983 20.834C64.6743 20.498 64.5123 20.06 64.5123 19.52C64.5123 18.74 64.8003 18.104 65.3763 17.612C65.9643 17.108 66.7563 16.856 67.7523 16.856C68.7003 16.856 69.4743 17.096 70.0743 17.576C70.6863 18.044 71.0403 18.716 71.1363 19.592H69.6423C69.5823 19.136 69.3843 18.782 69.0483 18.53C68.7243 18.266 68.2863 18.134 67.7343 18.134C67.1943 18.134 66.7743 18.248 66.4743 18.476C66.1863 18.704 66.0423 19.004 66.0423 19.376C66.0423 19.736 66.2283 20.018 66.6003 20.222C66.9843 20.426 67.5003 20.6 68.1483 20.744C68.7003 20.864 69.2223 21.014 69.7143 21.194C70.2183 21.362 70.6263 21.62 70.9383 21.968C71.2623 22.304 71.4243 22.796 71.4243 23.444C71.4363 24.248 71.1303 24.914 70.5063 25.442C69.8943 25.958 69.0603 26.216 68.0043 26.216ZM76.708 26C75.892 26 75.25 25.802 74.782 25.406C74.314 25.01 74.08 24.296 74.08 23.264V18.35H72.532V17.072H74.08L74.278 14.93H75.592V17.072H78.22V18.35H75.592V23.264C75.592 23.828 75.706 24.212 75.934 24.416C76.162 24.608 76.564 24.704 77.14 24.704H78.076V26H76.708ZM83.111 26.216C82.367 26.216 81.749 26.09 81.257 25.838C80.765 25.586 80.399 25.25 80.159 24.83C79.919 24.41 79.799 23.954 79.799 23.462C79.799 22.55 80.147 21.848 80.843 21.356C81.539 20.864 82.487 20.618 83.687 20.618H86.099V20.51C86.099 19.73 85.895 19.142 85.487 18.746C85.079 18.338 84.533 18.134 83.849 18.134C83.261 18.134 82.751 18.284 82.319 18.584C81.899 18.872 81.635 19.298 81.527 19.862H79.979C80.039 19.214 80.255 18.668 80.627 18.224C81.011 17.78 81.485 17.444 82.049 17.216C82.613 16.976 83.213 16.856 83.849 16.856C85.097 16.856 86.033 17.192 86.657 17.864C87.293 18.524 87.611 19.406 87.611 20.51V26H86.261L86.171 24.398C85.919 24.902 85.547 25.334 85.055 25.694C84.575 26.042 83.927 26.216 83.111 26.216ZM83.345 24.938C83.921 24.938 84.413 24.788 84.821 24.488C85.241 24.188 85.559 23.798 85.775 23.318C85.991 22.838 86.099 22.334 86.099 21.806V21.788H83.813C82.925 21.788 82.295 21.944 81.923 22.256C81.563 22.556 81.383 22.934 81.383 23.39C81.383 23.858 81.551 24.236 81.887 24.524C82.235 24.8 82.721 24.938 83.345 24.938ZM89.8792 26V17.072H91.2472L91.3732 18.782C91.6492 18.194 92.0692 17.726 92.6332 17.378C93.1972 17.03 93.8932 16.856 94.7212 16.856V18.44H94.3072C93.7792 18.44 93.2932 18.536 92.8492 18.728C92.4052 18.908 92.0512 19.22 91.7872 19.664C91.5232 20.108 91.3912 20.72 91.3912 21.5V26H89.8792ZM101.272 26V13.4H102.784L109.498 23.498V13.4H111.01V26H109.498L102.784 15.902V26H101.272ZM117.66 26.216C116.82 26.216 116.064 26.024 115.392 25.64C114.72 25.256 114.186 24.716 113.79 24.02C113.406 23.312 113.214 22.484 113.214 21.536C113.214 20.588 113.412 19.766 113.808 19.07C114.204 18.362 114.738 17.816 115.41 17.432C116.094 17.048 116.856 16.856 117.696 16.856C118.536 16.856 119.292 17.048 119.964 17.432C120.636 17.816 121.164 18.362 121.548 19.07C121.944 19.766 122.142 20.588 122.142 21.536C122.142 22.484 121.944 23.312 121.548 24.02C121.152 24.716 120.612 25.256 119.928 25.64C119.256 26.024 118.5 26.216 117.66 26.216ZM117.66 24.92C118.176 24.92 118.656 24.794 119.1 24.542C119.544 24.29 119.904 23.912 120.18 23.408C120.456 22.904 120.594 22.28 120.594 21.536C120.594 20.792 120.456 20.168 120.18 19.664C119.916 19.16 119.562 18.782 119.118 18.53C118.674 18.278 118.2 18.152 117.696 18.152C117.18 18.152 116.7 18.278 116.256 18.53C115.812 18.782 115.452 19.16 115.176 19.664C114.9 20.168 114.762 20.792 114.762 21.536C114.762 22.28 114.9 22.904 115.176 23.408C115.452 23.912 115.806 24.29 116.238 24.542C116.682 24.794 117.156 24.92 117.66 24.92ZM125.71 26L123.1 17.072H124.612L126.502 24.074L128.59 17.072H130.3L132.406 24.074L134.278 17.072H135.808L133.198 26H131.65L129.454 18.638L127.258 26H125.71Z" fill="white"/>
</svg>
